<svg width="27" height="27" viewBox="0 0 27 27" fill="none" xmlns="http://www.w3.org/2000/svg">
<path d="M25.9053 8.33873H19.098C18.6328 8.33873 18.2471 7.95298 18.2471 7.48782C18.2471 7.02265 18.6328 6.6369 19.098 6.6369H25.9053C26.3705 6.6369 26.7562 7.02265 26.7562 7.48782C26.7562 7.95298 26.3705 8.33873 25.9053 8.33873Z" fill="#115573"/>
<path d="M7.75243 8.33873H3.2142C2.74903 8.33873 2.36328 7.95298 2.36328 7.48782C2.36328 7.02265 2.74903 6.6369 3.2142 6.6369H7.75243C8.21759 6.6369 8.60334 7.02265 8.60334 7.48782C8.60334 7.95298 8.21759 8.33873 7.75243 8.33873Z" fill="#115573"/>
<path d="M12.2906 12.3097C9.63575 12.3097 7.46875 10.1427 7.46875 7.48782C7.46875 4.83295 9.63575 2.66595 12.2906 2.66595C14.9455 2.66595 17.1125 4.83295 17.1125 7.48782C17.1125 10.1427 14.9455 12.3097 12.2906 12.3097ZM12.2906 4.36779C10.5661 4.36779 9.17058 5.76329 9.17058 7.48782C9.17058 9.21234 10.5661 10.6078 12.2906 10.6078C14.0151 10.6078 15.4106 9.21234 15.4106 7.48782C15.4106 5.76329 14.0151 4.36779 12.2906 4.36779Z" fill="#115573"/>
<path d="M25.9053 20.8189H21.367C20.9019 20.8189 20.5161 20.4331 20.5161 19.9679C20.5161 19.5028 20.9019 19.117 21.367 19.117H25.9053C26.3704 19.117 26.7562 19.5028 26.7562 19.9679C26.7562 20.4331 26.3704 20.8189 25.9053 20.8189Z" fill="#115573"/>
<path d="M10.0215 20.8189H3.2142C2.74903 20.8189 2.36328 20.4331 2.36328 19.9679C2.36328 19.5028 2.74903 19.117 3.2142 19.117H10.0215C10.4867 19.117 10.8725 19.5028 10.8725 19.9679C10.8725 20.4331 10.4867 20.8189 10.0215 20.8189Z" fill="#115573"/>
<path d="M16.8289 24.7898C14.1741 24.7898 12.0071 22.6228 12.0071 19.9679C12.0071 17.3131 14.1741 15.1461 16.8289 15.1461C19.4838 15.1461 21.6508 17.3131 21.6508 19.9679C21.6508 22.6228 19.4838 24.7898 16.8289 24.7898ZM16.8289 16.8479C15.1044 16.8479 13.7089 18.2434 13.7089 19.9679C13.7089 21.6925 15.1044 23.088 16.8289 23.088C18.5535 23.088 19.949 21.6925 19.949 19.9679C19.949 18.2434 18.5535 16.8479 16.8289 16.8479Z" fill="#115573"/>
</svg>
