<svg width="20" height="21" viewBox="0 0 20 21" fill="none" xmlns="http://www.w3.org/2000/svg">
<path d="M7.37203 0.609373C9.32721 0.609373 11.2023 1.38634 12.5848 2.76935C13.9674 4.15236 14.7441 6.02812 14.7441 7.98399C14.7441 9.81063 14.0749 11.4898 12.9748 12.7832L13.281 13.0895H14.177L19.8478 18.7623L18.1465 20.4641L12.4757 14.7913V13.895L12.1695 13.5887C10.8316 14.7306 9.1307 15.3581 7.37203 15.3586C5.41684 15.3586 3.54174 14.5816 2.15922 13.1986C0.776693 11.8156 0 9.93986 0 7.98399C0 6.02812 0.776693 4.15236 2.15922 2.76935C3.54174 1.38634 5.41684 0.609373 7.37203 0.609373ZM7.37203 2.87849C4.53663 2.87849 2.26832 5.1476 2.26832 7.98399C2.26832 10.8204 4.53663 13.0895 7.37203 13.0895C10.2074 13.0895 12.4757 10.8204 12.4757 7.98399C12.4757 5.1476 10.2074 2.87849 7.37203 2.87849Z" fill="#0F4D68"/>
</svg>
